PathFileType        4      (X/Y/Z)      C:\Users\cpontonn\Documents\TRAVAIL - COURS\DIGISPORT\Partage Nico\Partage Nico DIGISPORT\TP OPENSIM - eleves - work\DATA\transformed_Statique.trc         
DataRate	CameraRate	NumFrames	NumMarkers	Units	OrigDataRate	OrigDataStartFrame	OrigNumFrames
100.0	100.0	4	38	mm	100.0	534	610
Frame#	Time	LFHD			LBHD			RFHD			RBHD			C7			T10			CLAV			STRN			LSHO			LRAD			LHUM			LWRB			LWRA			LCAR			RSHO			RRAD			RHUM			RWRB			RWRA			RCAR			LFWT			LBWT			RFWT			RBWT			LKNE			LKNI			LANE			LHEE			LANI			LTAR			LTOE			RKNE			RKNI			RANE			RHEE			RANI			RTAR			RTOE			
		X1	Y1	Z1	X2	Y2	Z2	X3	Y3	Z3	X4	Y4	Z4	X5	Y5	Z5	X6	Y6	Z6	X7	Y7	Z7	X8	Y8	Z8	X9	Y9	Z9	X10	Y10	Z10	X11	Y11	Z11	X12	Y12	Z12	X13	Y13	Z13	X14	Y14	Z14	X15	Y15	Z15	X16	Y16	Z16	X17	Y17	Z17	X18	Y18	Z18	X19	Y19	Z19	X20	Y20	Z20	X21	Y21	Z21	X22	Y22	Z22	X23	Y23	Z23	X24	Y24	Z24	X25	Y25	Z25	X26	Y26	Z26	X27	Y27	Z27	X28	Y28	Z28	X29	Y29	Z29	X30	Y30	Z30	X31	Y31	Z31	X32	Y32	Z32	X33	Y33	Z33	X34	Y34	Z34	X35	Y35	Z35	X36	Y36	Z36	X37	Y37	Z37	X38	Y38	Z38	
534	5.33	95.32461999999994	1794.34558	414.9093900000001	101.99706999999997	1743.06335	276.1430100000001	-40.91492000000005	1796.60901	411.88483000000014	-24.116800000000033	1735.20984	261.8797900000001	19.23567999999997	1613.90576	233.0107600000001	17.717659999999977	1386.49048	163.9100500000001	19.728679999999958	1540.50427	361.2903400000001	17.81223999999995	1364.68958	406.57648000000006	221.10462999999996	1578.43762	285.6392800000001	279.23076999999995	1202.55017	267.7870200000001	218.70121999999998	1208.66284	238.88452000000012	292.9133299999999	964.41846	362.5721100000001	218.74827999999994	965.96777	388.01794000000007	272.1628099999999	893.29395	419.6539300000001	-171.69049000000004	1575.33105	288.9201000000001	-239.24686000000003	1200.10144	268.63412	-186.32961000000003	1202.50452	236.00256000000005	-265.26038000000005	959.13672	365.38712	-202.75558000000007	961.55048	403.38077000000004	-260.19009000000005	889.29065	415.46036	118.22613999999994	1069.1731	433.56201000000004	48.27598999999997	1110.60107	241.35489000000007	-72.92832000000006	1069.59216	441.9546500000001	-32.85387000000003	1109.96423	244.21429000000006	189.53106999999997	564.05603	253.61794000000006	81.66235999999998	521.84705	268.45776000000006	195.28644999999997	107.84857999999998	233.63927000000004	137.05802999999997	27.62536999999999	158.64920000000004	108.54285999999998	112.50826999999998	250.82967	229.79033999999993	44.267429999999976	391.7583	149.02404999999993	46.41604999999997	451.01559	-168.58955000000003	559.17365	288.8476600000001	-79.33463000000003	509.793	283.17624000000006	-184.77803000000003	99.22245999999998	236.58336999999997	-121.29646000000001	30.996559999999988	160.36930999999998	-93.43031000000003	119.25096999999998	252.62981	-220.68481000000006	41.08779999999998	391.79227	-137.29384000000005	42.877089999999974	452.86136	
535	5.34	95.37773999999995	1794.31897	414.9422600000001	102.01056999999997	1743.07678	276.17889000000014	-40.85744000000005	1796.61548	411.9309100000001	-24.06188000000003	1735.21729	261.9365500000001	19.25252999999997	1613.90808	233.04285000000007	17.703499999999977	1386.50452	163.9323300000001	19.75746999999996	1540.50562	361.3218400000001	17.83576999999995	1364.66846	406.58902000000006	221.12870999999998	1578.40796	285.6622600000001	279.21703999999994	1202.51465	267.7525000000001	218.67028999999997	1208.62659	238.86815000000013	292.02529999999996	964.43427	362.26852000000014	218.69687999999994	965.9248	387.93723000000006	272.0976299999999	893.23376	419.5929900000001	-171.67094000000003	1575.34338	288.95001000000013	-239.24828000000002	1200.10681	268.68954	-186.32408000000004	1202.53284	236.05812000000006	-265.25208000000003	959.14417	365.43274	-202.77460000000005	961.60822	403.5148300000001	-260.1733100000001	889.30695	415.50482	118.23555999999995	1069.14648	433.58948000000004	48.27862999999997	1110.63684	241.40466000000006	-72.92547000000006	1069.57275	441.97055000000006	-32.85830000000003	1109.97485	244.21797000000007	189.90571999999997	564.1778	253.43140000000005	81.66477999999996	521.83368	268.45743000000004	195.03107999999997	107.64354999999999	233.64993000000004	137.04644999999996	27.62605999999999	158.65450000000004	108.52915999999998	112.49993999999998	250.83418	229.79886999999994	44.277299999999975	391.74429	149.03197999999995	46.40299999999997	451.01541	-168.57947000000001	559.1803	288.86874000000006	-79.31343000000003	509.81918	283.19986000000006	-184.77664000000001	99.20973999999998	236.59379999999996	-121.28673000000002	31.00352999999999	160.37201999999996	-93.42169000000003	119.24008999999998	252.62711	-220.69780000000006	41.07637999999998	391.79965	-137.29539000000005	42.87771999999997	452.88202	
536	5.35	95.42373999999994	1794.30811	415.0100700000001	102.08536999999997	1743.04761	276.23270000000014	-40.81392000000005	1796.60669	411.97025000000014	-24.02237000000003	1735.22546	261.9849900000001	19.26447999999997	1613.90161	233.07715000000007	17.729559999999978	1386.47522	163.9779800000001	19.767749999999957	1540.47498	361.3465900000001	17.84040999999995	1364.65588	406.6055600000001	221.14123999999998	1578.37939	285.68506000000014	279.20769999999993	1202.474	267.7347400000001	218.65983999999997	1208.62695	238.8226000000001	292.76809999999995	964.29749	362.4442100000001	218.66988999999995	965.88171	387.86798000000005	272.02074999999996	893.18018	419.5340000000001	-171.64804000000004	1575.35413	288.9977700000001	-239.26027000000002	1200.12842	268.7449	-186.32936000000004	1202.54248	236.09911000000005	-265.25552000000005	959.16534	365.50446	-202.74881000000005	961.60535	403.47110000000004	-260.16577000000007	889.30969	415.5806	118.22805999999994	1069.14807	433.6482500000001	48.28925999999997	1110.64697	241.44417000000007	-72.92826000000005	1069.5636	441.9972200000001	-32.83549000000003	1109.96985	244.26735000000005	189.54172999999997	564.03986	253.64722000000006	81.67918999999998	521.85626	268.47974000000005	195.30475999999996	107.84591999999999	233.64230000000003	137.05417999999997	27.60774999999999	158.67120000000003	108.53472999999997	112.50411999999999	250.8335	229.79368999999994	44.26626999999998	391.73331	149.03080999999995	46.40429999999997	451.00815	-168.58304000000004	559.18542	288.87750000000005	-79.32600000000002	509.8027	283.21320000000003	-184.78088000000002	99.22196999999998	236.58460999999997	-121.27618000000001	31.00217999999999	160.38024999999996	-93.42804000000002	119.24057999999998	252.62872	-220.69899000000007	41.08402999999998	391.79065	-137.29738000000006	42.86396999999997	452.85376	
537	5.36	95.45963999999994	1794.29163	415.0500800000001	102.11149999999998	1743.02979	276.2676400000001	-40.76362000000005	1796.60608	412.0101300000001	-23.98623000000003	1735.23901	262.0144300000001	19.33060999999997	1613.89917	233.12094000000008	17.73592999999998	1386.474	164.0096000000001	19.792179999999956	1540.46375	361.3772300000001	17.86057999999995	1364.63708	406.64032000000003	221.16727999999998	1578.33887	285.7145700000001	278.27666999999997	1202.45593	267.6691900000001	218.63747999999998	1208.61035	238.8077500000001	291.91430999999994	964.3233	362.11484000000013	218.62322999999995	965.83344	387.80307000000005	271.97671999999994	893.14874	419.4577000000001	-171.62204000000003	1575.36646	289.0462300000001	-239.26788000000002	1200.13574	268.76041	-186.35695000000004	1202.55261	236.14821000000006	-265.26025000000004	959.18109	365.55188	-202.74379000000005	961.62122	403.54971000000006	-260.14420000000007	889.3327	415.63071	118.23749999999994	1069.14868	433.69238000000007	48.27195999999997	1110.66492	241.46007000000006	-72.91320000000006	1069.56653	441.99829000000005	-32.803940000000026	1109.9801	244.31087000000005	189.91216999999997	564.15356	253.47252000000006	81.68019999999997	521.84216	268.4833100000001	195.03571999999997	107.64199999999998	233.64842000000002	137.03780999999998	27.61795999999999	158.64729000000003	108.54046999999997	112.49244999999999	250.81442	229.79174999999995	44.26919999999998	391.75027	149.02752999999996	46.40040999999997	451.01389	-168.56201000000001	559.17841	288.87439000000006	-79.30457000000003	509.80466	283.24203000000006	-184.77518000000003	99.22152999999999	236.57985999999997	-121.29079000000002	30.99107999999999	160.36962999999997	-93.42616000000002	119.24818999999998	252.62183	-220.68730000000005	41.06934999999998	391.7865	-137.28702000000007	42.88107999999997	452.87958	
